<svg xmlns="http://www.w3.org/2000/svg" width="1024" height="1024"><path fill="#c56341" d="M396.824 198.879C450.508 198.199 501.11 212.583 546 242l4.023 2.617C566.452 255.58 580.233 268.964 594 283l4 4c4.44 5.585 8.702 11.305 13 17l2.875 3.68c7.992 10.43 14.122 21.68 20.125 33.32l2.406 4.543c7.33 14.518 11.912 29.935 16.594 45.457l1.602 5.125c13.653 46.907 10.514 99.551-3.667 145.805a317 317 0 0 0-2.224 7.726c-9.388 31.739-27.972 59.762-48.461 85.281C597 639 597 639 596 641h-2v2h-2v2a310 310 0 0 1-5.43 4.715c-4.222 3.754-8.1 7.85-12.03 11.906C572 664 572 664 570 664v2a225 225 0 0 1-8.688 6.562c-.878.636-1.756 1.272-2.662 1.926q-2.64 1.907-5.288 3.805a296 296 0 0 0-5.569 4.14C494.048 722.198 422.772 733.232 358 723.626c-7.256-1.206-14.309-2.86-21.387-4.855-9.828-2.094-16.38.82-25.3 4.73q-3.923 1.674-7.848 3.34l-3.872 1.652c-4.701 1.973-9.442 3.785-14.218 5.57-10.36 3.89-20.59 8.066-30.828 12.262a1762 1762 0 0 1-17.36 6.988 605 605 0 0 0-20.437 8.56c-7.663 3.145-15.578 2.88-23.5 1.003-9.262-4.086-13.66-9.142-18.25-17.875-3.14-12.563.198-23.945 3.937-36l1.511-5.04c1.5-4.992 3.024-9.976 4.552-14.96 2.67-8.816 5.322-17.637 7.945-26.467q1.08-3.617 2.184-7.226a903 903 0 0 0 3.183-10.745l1.01-3.23c1.37-4.834 1.984-7.59.041-12.309a1197 1197 0 0 0-5.488-6.96c-41.003-51.95-57.022-123.114-50.625-188.02 3.925-33.324 13.016-65.3 28.75-95.043l2.223-4.344c4.444-8.6 9.142-16.783 14.777-24.656l2.078-2.91c5.084-6.94 10.576-13.473 16.223-19.961a135 135 0 0 0 4.93-6.04L214 279h2l1-3c2.64-2.363 5.312-4.69 8-7l3.625-3.75c42.845-43.436 108.435-64.87 168.2-66.371"/><path fill="#c5603e" d="M635 286c23.576-2.111 53.069 5.519 75 14l3.7 1.398c27.202 10.569 52.38 25.275 74.3 44.602l3.418 2.828C803.974 359.252 815.012 371.105 825 384l2.5 3.168c13.302 17.42 23.557 36.444 31.5 56.832l1.926 4.898c22.903 60.129 23.389 127.42-.75 187.18a454 454 0 0 0-3.059 7.86c-3.778 9.7-8.567 18.276-14.117 27.062a1707 1707 0 0 0-3.148 5.219c-5.73 9.483-11.688 18.303-18.852 26.781-3.026 12.104 6.289 30.623 9.903 42.424 3.528 11.57 6.877 23.185 10.16 34.826l1.445 5.118c4.238 15.1 6.552 25.772-.946 40.382-5.558 6.631-12.158 9.57-20.562 11.25-6.275.318-10.997-.312-16.875-2.5l-4.492-1.672c-6.208-2.45-12.352-5.03-18.488-7.652-13.099-5.54-26.364-10.688-39.594-15.903l-5.028-1.982q-4.892-1.927-9.786-3.85l-4.643-1.828-4.559-1.79a428 428 0 0 1-9.226-3.837l-4.528-1.943-4.029-1.769c-7.146-2.427-12.695-.935-19.814 1.038-10.89 2.83-21.77 4.419-32.938 5.688l-4.723.566c-53.862 4.426-106.25-8.99-152.715-36.129l-2.763-1.606C480.826 758.285 475.326 754.47 470 750v-2c2.257-.849 4.56-1.573 6.875-2.25l4.426-1.336L486 743c11.46-3.567 22.217-7.74 33-13l5.375-2.375C535.889 722.393 546.787 716.453 557 709a503 503 0 0 1 5.375-3.375c8.08-5.101 15.671-10.767 22.75-17.187C589 685 589 685 591 685v-2c5.476-5 5.476-5 8-5v-2a800 800 0 0 1 8-7l2-3h2l2-4a172 172 0 0 1 4.813-5.187C629.293 644.487 639.685 630.658 648 616l2.48-4.172C684.942 553.548 699.033 484.057 688 417l-.809-4.984c-4.964-27.273-14.03-53.351-25.629-78.454l-1.88-4.096c-3.932-8.352-8.38-15.92-13.682-23.466q-3.014-4.522-6-9.062l-2.875-4.348C635 289 635 289 635 286"/><path fill="#d17352" d="M354 204a390 390 0 0 1-10.562 5.063l-3.442 1.597C337 212 337 212 334 213l1 2c-4.32 1.61-6.46 2.135-11 1-5.187.813-5.187.813-10 2l-1 2h7l1 4-4 1c-.345 3.728-.185 6.444 1 10v3l3 1-1 3h2v2c-2.3.96-4.644 1.814-7 2.625-8.705 3.156-16.815 7.067-25 11.375l-3.203 1.668c-5.226 2.777-10.009 5.868-14.797 9.332h-2v2q-3.783 2.334-7.57 4.66c-5.432 3.706-10.238 8.085-15.145 12.45C240.591 294 240.591 294 238 294l-2 4c-2.088 2.809-4.244 5.238-6.75 7.688C227 308 227 308 227 310l5 3-2 1-3.5-1.687L223 311l-2 4-2.875 3.313C215 322 215 322 212.75 325.938L211 329h-2l-2 5a299 299 0 0 1-4.125 6.875C195.798 352.572 189.672 364.147 185 377l-2.062 4.938C178.952 392.35 176.408 403.13 174 414l-1.062 4.438c-.966 4.696-1.795 9.339-2.352 14.101-.486 3.696-1.137 7.269-1.86 10.922-1.119 6.5-1.954 12.006-.726 18.539 6.827 2.477 12.973 1.235 20 0v1l-4.445-.887c-5.973-.842-9.903-1.312-15.555.887-2.11 9.408.193 18.656 2 28l.805 4.47c2.569 14.151 5.457 27.939 10.195 41.53l1.453 5.066c1.72 5.484 3.9 10.66 6.297 15.871l1.328 2.916C193.23 567.65 196.853 573.78 201 580v3h2c3 5.308 3 5.308 3 8h2c2 3 2 3 2 7l3 1c5 6.28 5 6.28 5 10l4 2 1 4h2l1 3 4 2a282 282 0 0 1 5 5l3.313 2.688L241 630v2h2l3.125 3.625c4.411 4.98 9.126 8.507 14.605 12.23 2.45 1.677 4.863 3.407 7.27 5.145v2l5 2c2.37 1.304 4.724 2.64 7.063 4 3.617 2.1 7.195 4.129 10.937 6v2l3.75 1.25C300 672 300 672 305.125 674.688 329.86 687.273 363.27 696.206 391 695l-2.64-.664c-11.95-3.181-21.65-7.6-31.36-15.336l-4-2.75-3-2.25v-2l-4-2c-6.823-6.234-12.924-13.26-18-21l1-2 2 4h2l2.75 3.625C349.173 672.318 366.938 687.207 389 692l3.005 1.291c3.193 1.123 3.193 1.123 8.995.709 2.054-7.016 1.347-14.441 1.137-21.684q-.039-3.627-.06-7.256c-.043-5.325-.123-10.649-.23-15.973-.17-8.595-.258-17.19-.33-25.785l-.076-9.126-.039-4.702q-.067-7.346-.148-14.693c-.437-42.3-.138-84.6.107-126.9q.097-17.062.169-34.123.05-11.338.108-22.675.04-7.625.07-15.249.038-8.33.087-16.661l.017-5.011.03-4.495.02-3.928c.045-.904.09-1.808.138-2.739h1c.043 3.029.01 6.06-.045 9.088l-.098 6.006-.057 3.24c-.11 6.797-.168 13.593-.236 20.39-.064 5.994-.145 11.986-.263 17.979a1231 1231 0 0 0-.21 17.331q-.033 3.315-.118 6.632a374 374 0 0 0-.092 9.246l-.077 5.33L403 462c5.07.505 5.07.505 10 0v1l-4.912-.491L403 463c-1.314 3.644-1.314 3.644-1.404 8.859l-.173 5.95-.034 6.611q-.07 3.45-.15 6.897c-.132 6.266-.197 12.531-.24 18.798q-.047 5.86-.116 11.721a4546 4546 0 0 0-.272 36.605c-.045 14.132-.22 28.254-.51 42.383a1762 1762 0 0 0-.33 32.68c-.01 6.522-.071 13.036-.249 19.557-.852 33.13-.852 33.13 3.478 42.939 4.737 3.215 8.791 3.008 14.35 2.314 4.03-.828 7.868-1.872 11.786-3.128 4.786-1.47 9.542-2.242 14.487-2.967 11.795-1.806 23.11-5.364 34.377-9.219 9.504-3 9.504-3 12-3v-2a1150 1150 0 0 1 9.02-3.387c9.612-3.896 18.715-9.053 27.418-14.676C531 657 531 657 533 657v-2c7.38-5 7.38-5 10-5v-2l4-1v-2c2.047-1.875 2.047-1.875 4.75-4l2.672-2.125C557 637 557 637 561 635l2-4c3.367-3.18 6.413-5.157 11-6 3.188 1.313 3.188 1.313 6 3l3 1-2 4 1 3h5l1 2h-2v2l-1 1 4-1v-1h5l-1-2h-3l1-3c3.688.5 3.688.5 7 2l-2 5h-2v2h-2v2a310 310 0 0 1-5.43 4.715c-4.222 3.754-8.1 7.85-12.03 11.906C572 664 572 664 570 664v2a225 225 0 0 1-8.687 6.563l-2.663 1.925q-2.64 1.907-5.288 3.805a296 296 0 0 0-5.569 4.14C494.048 722.198 422.772 733.232 358 723.626c-7.256-1.206-14.309-2.86-21.387-4.855-9.828-2.094-16.38.82-25.3 4.73q-3.923 1.674-7.848 3.34l-3.872 1.652c-4.701 1.973-9.442 3.785-14.218 5.57-10.36 3.89-20.59 8.066-30.828 12.262a1762 1762 0 0 1-17.36 6.989 605 605 0 0 0-20.437 8.558c-7.663 3.146-15.578 2.88-23.5 1.004-9.262-4.086-13.66-9.142-18.25-17.875-3.14-12.563.198-23.945 3.938-36l1.51-5.04c1.5-4.992 3.024-9.976 4.552-14.96 2.67-8.816 5.322-17.637 7.945-26.467q1.08-3.617 2.184-7.226a903 903 0 0 0 3.184-10.745l1.008-3.231c1.37-4.833 1.985-7.588.042-12.308a1197 1197 0 0 0-5.488-6.96c-41.003-51.95-57.022-123.114-50.625-188.02 3.925-33.324 13.016-65.3 28.75-95.043l2.223-4.344c4.444-8.6 9.142-16.783 14.777-24.656l2.078-2.91c5.084-6.94 10.576-13.473 16.223-19.961a135 135 0 0 0 4.93-6.04L214 279h2l1-3c2.64-2.363 5.312-4.69 8-7l3.625-3.75C257.145 236.336 312.269 204 354 204"/><path fill="#d07352" d="m546 242 4.023 2.617C566.452 255.58 580.233 268.964 594 283l4 4c4.44 5.585 8.702 11.305 13 17l2.875 3.68c7.992 10.43 14.122 21.68 20.125 33.32l2.406 4.543c7.33 14.518 11.912 29.935 16.594 45.457l1.602 5.125c13.653 46.907 10.514 99.551-3.667 145.805a317 317 0 0 0-2.224 7.726C639.347 581.313 620.812 611.477 599 636h-1c.313-3.5.313-3.5 1-7h2l-1-2h-2c-3-4-3-4-3-8h-2l-1 2c-2-2-2-2-3-4l-2 1-2-1c-.25-5.062-.25-5.062 0-10h2l2-4 2-4h2l2-5 1.75-2.125c2.659-3.398 4.597-7.06 6.613-10.863 1.622-2.985 3.366-5.864 5.137-8.762 3.332-5.65 5.74-11.477 8.043-17.61C618 551 618 551 619.961 547.23c2.373-4.923 3.978-9.93 5.476-15.168.3-1.04.6-2.08.907-3.153C633.294 504.1 636.692 478.76 637 453l-1-1-.375-5.437C633.891 421.567 629.017 390.694 616 369l-1.187-3.375C607.457 346.856 595.28 326.28 581 312c-5.342 1.068-8.152 3.18-12.484 6.344-3.043 2.003-5.952 2.959-9.516 3.656 4.516-5.295 9.87-7.899 16-11h2l1-4h-2v-2h-2l-1.75-2.687c-2.376-3.5-4.998-5.652-8.25-8.313v-2l-4-2a687 687 0 0 1-8-7l-3-2v-2l-4-2-7-5-4-2v-2l-5-2a373 373 0 0 1-12.273-6.93c-7.407-4.332-14.748-7.94-22.727-11.07q-3.064-1.31-6.125-2.625c-5.196-2.173-10.46-3.817-15.875-5.375l-5-2c-10.673-2.91-21.37-4.749-32.344-6.094L431 231l-1-4 2-3h2v-4l2-1v-4l-2-2 2-3c-3 1-3 1-4 3-6.255 3.186-6.255 3.186-11 2v-2l-5-2 1-2h-2l-1 2-4-1-1 4-4-4-3 3-5-2-5 3-4-2-1-5-3-1v4h-2v-4h-3c-2 3-2 3-3 8-3-2-3-2-4-5l-4 1 1-4c-3.184-.793-3.184-.793-7.437-1.187A375 375 0 0 1 354 204v-1c67.376-11.394 134.858 1.554 192 39"/><path fill="#d17351" d="M575 327c1.802 2.477 3.598 4.96 5.281 7.52C582 337 582 337 585 340a186 186 0 0 1 4.125 6.375l2.133 3.398C593 353 593 353 594 358h2c10.193 18.188 17.32 38.503 21 59q.81 3.969 1.625 7.938.714 3.525 1.375 7.062l.586 3.129L621 439l.667 3.13c.523 3.808.7 6.257-.667 9.87-5.698 2.535-11.668 2.425-17.832 2.605l-5.494.218q-5.77.178-11.543.245c-5.93.12-11.803.508-17.719.907-21.46.76-21.46.76-29.412-3.975-5.591-10.025-4.012-22.142-3.192-33.192.285-7.15-.835-13.872-2.183-20.87l-.69-3.859c-2.21-12.305-4.926-24.51-8.583-36.47C523 353 523 353 523 350c2.887-1.352 2.887-1.352 6.688-2.625 1.24-.425 2.482-.85 3.761-1.29C537 345 537 345 542 344v-2c2.52-1.313 5.095-2.523 7.688-3.687 6.766-3.093 13.303-6.394 19.773-10.063C572 327 572 327 575 327m-346 0c3.428.857 6.706 1.727 10 3v2c2.325.697 4.66 1.358 7 2 2.15.987 4.276 2.032 6.375 3.125a638 638 0 0 0 16.75 8.25l4.258 2.023C277 349 277 349 281 350c-.17 5.551-1.646 10.587-3.25 15.875-5.107 18.036-8.017 36.401-10.074 55.008l-.471 3.128c-.187 3.629.149 6.487.717 10.049.83 7.264.862 11.495-2.922 17.94-10.937 4.3-23.713 3.085-35.24 2.69-5.941-.19-11.854-.165-17.797-.112q-5.597-.066-11.193-.172l-5.432.022c-8.352-.39-8.352-.39-12.338-2.428-1.398-5.61-.285-10.447 1-16l.543-4.691c3.214-19.301 7.302-41.385 17.457-58.309l1.75-4.562c2.566-6.201 5.797-11.706 9.25-17.438l1.898-3.41c2.216-3.784 4.654-7.291 7.227-10.84 4.799-6.636 4.799-6.636 6.875-9.75"/><path fill="#d27452" d="M503 357c7.794 20.158 11.164 42.065 13.688 63.438l.398 3.244q.358 3.201.57 6.416C518 434 518 434 518.86 438.467c.67 5.158.875 8.605-.861 13.533-7.21 3.767-14.985 4.043-22.969 4.57l-3.518.293c-8.668.713-17.32 1.042-26.013 1.262l-3.771.131c-34.36 1.121-34.36 1.121-48.729-6.256-9.612-11.013-8.594-26.181-7.687-39.937l.33-5.781c.433-5.61 1.09-11.118 1.908-16.684l.73-5.289c1.01-4.857 1.813-8.279 4.719-12.309 6.122-1.899 11.673-1.447 18-1 2.435-.225 4.867-.5 7.285-.867l3.39-.49 3.387-.518 3.647-.541C465.629 366.044 486.706 357 503 357"/><path fill="#d27352" d="M439.937 466.738c8.536-.442 17.025-.265 25.563.012l3.8.084c8.606.196 17.151.7 25.731 1.4l3.526.217c6.947.487 13.277 1.057 19.443 4.549 2.196 6.938 1.236 12.932 0 20a329 329 0 0 0-.516 7.156 479 479 0 0 1-.734 6.344l-.405 3.448c-1.764 14.355-4.637 28.501-8.458 42.45C507 556 507 556 506.645 559.54c-.395 3.149-.395 3.149-2.645 7.461-5.594.32-10.679-1.417-16-3-10.758-3.041-21.378-5.573-32.437-7.187l-3.11-.469-3.262-.45-3.594-.591c-4.103-.27-7.408.013-11.454.55-7.498.713-14.58 1.366-21.143-2.853-7.623-11.656-7.84-26.633-8.312-40.125l-.301-5.704c-.671-27.53 8.577-38.447 35.55-40.433"/><path fill="#d27351" d="M542.41 471.831c10.513-1.745 21.079-1.503 31.7-1.184 5.937.165 11.852.144 17.79.097q5.599.06 11.198.15l5.425-.019c8.337.34 8.337.34 12.477 2.125 1.806 4.853.99 9.016 0 14l-.478 3.402c-.431 3.065-1.017 6.068-1.647 9.098l-.689 3.392C613.044 527.608 605.316 550.47 592 572l-2 5h-2c-.73 1.977-1.394 3.98-2 6l-1 2h-2l-2 5-2 3h-2l-2 5c-4-1-4-1-9-3v-2h-3v-2l-5-1a314 314 0 0 1-9-4.25c-8.52-4.104-17.021-7.757-26-10.75v-3h2c.349-3.332.678-6.666 1-10 .845-4.2 1.888-8.346 2.938-12.5 3.167-12.717 5.543-25.297 7.125-38.312l.525-4.1.51-4.17.637-4.261C538 494 538 494 536.9 488.322c-2.04-13.902-2.04-13.902 5.51-16.491"/><path fill="#d27452" d="M301 357c4.107.84 7.987 1.83 12 3 12.19 3.08 24.371 6.029 36.75 8.25l5.567 1.028c4.864.714 9.06.56 13.929-.08 7.696-.785 14.943-1.382 21.754 2.802 7.784 11.566 7.933 26.644 8.375 40.125l.294 5.702c.289 12.284-.128 24.62-8.669 34.173-15.903 8.176-35.168 6.9-52.562 6.375l-3.806-.072c-7.435-.142-14.826-.463-22.24-1.06q-3.524-.283-7.054-.483c-6.986-.457-13.274-.976-19.338-4.76-1.855-7.679-.565-14.354 1-22 .243-2.276.465-4.554.648-6.836 1.46-11.13 3.11-22.161 5.352-33.164l1.008-5.246c2.735-14.111 2.735-14.111 4.992-19.754l.375-4.5z"/><path fill="#d17351" d="M183 473c5.636-2.792 11.625-2.26 17.805-2.16l5.512-.054q5.793-.022 11.587.073c5.944.078 11.868-.02 17.81-.134q5.609.01 11.216.052l5.429-.113c8.358.255 8.358.255 12.641 2.336 2.06 5.708 1.477 11.029 1 17 .323 3.298.678 6.594 1.086 9.883l.633 5.097.656 5.145.633 5.168c3.078 24.454 3.078 24.454 6.992 35.707a308 308 0 0 1 2 7l.828 2.938.86 3.187.824 3.008C281 570 281 570 280 575c-3 1.227-6.013 2.429-9.074 3.496-5.79 2.218-11.104 5.203-16.551 8.149a558 558 0 0 1-13.187 6.855l-3.895 1.969C234 597 234 597 230 598c-4.515-4.515-7.656-9.598-11-15l-2.508-3.875C203.321 558.365 194.88 536.815 189 513l-1-1a396 396 0 0 1-1.5-9.312c-1.405-9.307-1.405-9.307-2.5-13.688-1.37-5.545-2.424-10.389-1-16"/><path fill="#d27452" d="m339.063 467.938 3.723-.202c34.015-1.64 34.015-1.64 48.214 5.264 9.932 10.874 9.23 25.944 8.625 39.813-.04 1.9-.078 3.8-.118 5.759-.493 11.87-1.224 24.58-8.507 34.428-9.223 5.136-19.783 4.113-29.974 3.245-5.573-.34-10.585.365-16.089 1.255l-4.66.656c-4.597.907-8.845 2.335-13.277 3.844a97 97 0 0 1-5.937 1c-5.537.834-10.707 2.363-16.063 4h-4c-1.344-3.305-1.344-3.305-2.5-7.875l-1.277-5.016L296 549l-1.066-4.36c-5.35-22.912-9.601-47.029-8.934-70.64 7.853-7.853 42.064-5.475 53.063-6.062"/><path fill="#d17352" d="M413 245c12.78-.496 25.457 8.19 35 16v2l5 2 1 3 3 1c1.938 2.18 1.938 2.18 4 4.875 2.243 2.914 4.392 5.517 7 8.125 6 8.47 6 8.47 6 12h2c6.559 10.045 11.369 20.974 16 32l2.438 5.375C496 335 496 335 496 337c-12.919 4.81-26.46 7.598-40 10l-5.79 1.04c-6.34 1.045-12.679 1.612-19.085 2.085l-3.297.262c-4.965.382-9.844.613-14.828.613-.782-4.03-.782-4.03-.824-9.746l-.046-3.138a730 730 0 0 1-.032-10.339q-.018-3.569-.04-7.136c-.022-4.995-.02-9.99-.005-14.984.017-6.427-.033-12.85-.103-19.277-.044-4.915-.047-9.829-.038-14.744q-.002-3.555-.047-7.111a456 456 0 0 1 .018-9.908l-.006-5.713z"/><path fill="#d17351" d="M413 575c6.889-2.28 12.96-1.225 20 0q3.76.372 7.523.7 3.43.468 6.852.987c.612.09.612.09 3.709.537C462.208 578.9 473.076 581.31 484 584l4.055.809c3.382.691 3.382.691 7.945 2.191-1.74 8.7-5.519 16.382-10 24l-1.352 3.242C480.141 624.518 473.575 633.944 467 643l-3.312 4.625L461 651h-2v2h-2v2h-2l-2 4h-2l-2 4c-13.509 10-13.509 10-17 10v2c-2.633 1.29-2.633 1.29-6.125 2.625l-3.445 1.352C419 680 419 680 413 680c-.856-3.986-.856-3.986-.999-9.639l-.1-3.103c-.098-3.41-.148-6.817-.19-10.227l-.059-3.51a1710 1710 0 0 1-.203-18.382c-.044-6.36-.21-12.711-.403-19.068-.126-4.864-.164-9.726-.177-14.592q-.033-3.518-.167-7.033c-.467-13.179-.467-13.179 2.298-19.446m-22-330c.595 3.986.595 3.986.724 9.639l.084 3.103c.085 3.409.136 6.817.18 10.227l.053 3.51c.09 6.127.152 12.254.195 18.382.05 6.359.198 12.711.367 19.068.112 4.864.15 9.727.166 14.592q.032 3.518.15 7.033c.418 13.165.418 13.165-1.919 19.446-5.884 2.3-10.928 1.158-17 0a244 244 0 0 0-7.64-.328c-7.5-.567-14.757-1.878-22.11-3.422l-3.919-.808C316.9 340.536 316.9 340.536 310 338c-1.815-5.444 1.793-10.928 4-16a347 347 0 0 1 4-7l1.625-4.437L321 307h2l.875-3.066c1.19-4.158 2.844-7.21 5.125-10.872l2.125-3.464L333 287h2l2-5a168 168 0 0 1 5.563-6.687c5.356-6.151 5.356-6.151 6.437-8.313h3v-2a99 99 0 0 1 5.25-4.562l2.953-2.442C363 256 363 256 367 255v-2c16.205-8 16.205-8 24-8"/><path fill="#d27452" d="M386.748 573.371 391 574c1.143 4.03 1.143 4.03 1.165 9.746l.047 3.138c.04 3.448.014 6.891-.017 10.339q.01 3.569.026 7.136c.014 4.996-.006 9.99-.048 14.984-.051 6.427-.021 12.85.032 19.277.033 4.915.023 9.829 0 14.744q-.01 3.555.022 7.111c.022 3.305-.012 6.604-.062 9.908l-.022 5.713L391 680c-13.746.531-27.43-10.137-37.23-18.883-7.579-7.353-7.579-7.353-8.77-12.117h-2c-3.891-4.174-7.057-8.096-10-13l-2.563-3.562C326 626.179 326 626.179 326 622l-3-1c-1.568-2.88-3.005-5.833-4.375-8.812l-2.395-5.204C309 590.827 309 590.827 309 588c24.854-10.148 51.561-11.161 77.748-14.629"/><path fill="#c46242" d="M635 286c23.576-2.111 53.069 5.519 75 14l3.7 1.398c12.62 4.904 24.836 10.37 36.3 17.602l-2 1-2.812-1C742 318 742 318 737 319v-2c-2-1-2-1-6-2l-1 2h-3l-1 2c-5-2-5-2-6-3h-2v-2c-2 1-2 1-3 3l-4 1v-2h-2l1 4h4l2-2c.107 3.353.185 6.708.25 10.063l.14 5.66L716 338l-4-1c-3 2-3 2-5 7l-2 1c-1 3-1 3-2 7-4 0-4 0-9-1v-3h-4v-2h-2v2l-2-1v-3h-4v2l-5 3c.063 3.688.063 3.688 1 7h2l2 5 2-1v4l-4 1 1 2 3-1c1 5 1 5-1 9 .574 3.18.574 3.18 1.688 6.875 2.102 7.33 3.814 14.65 5.312 22.125l.781 3.836c3.233 16.456 4.529 32.458 4.407 49.226l-.002 5.202c-.054 15.372-.054 15.372-1.186 21.736h-2c-.125 2.58-.12 5.167-.062 7.75.205 18.964.205 18.964-2.938 25.25a160 160 0 0 0-1.625 6.25L686 529c-1.287-5.147-.254-8.549.813-13.75 6.122-32.053 6.484-66.057 1.187-98.25l-.809-4.984c-4.964-27.273-14.03-53.351-25.629-78.454l-1.88-4.096c-3.932-8.352-8.38-15.92-13.682-23.466q-3.014-4.522-6-9.062l-2.875-4.348C635 289 635 289 635 286"/><path fill="#c3613f" d="M401 231c.682 4.158.891 7.749.887 11.934l.066 3.842c.063 4.22.08 8.44.09 12.661q.033 4.373.068 8.744c.04 6.12.055 12.24.056 18.361.005 7.871.097 15.738.212 23.608.074 6.022.09 12.044.088 18.066q.014 4.355.09 8.709c.066 4.05.05 8.091.014 12.141l.113 3.684c-.08 3.315-.08 3.315-1.684 8.25-4.442 1.161-8.497.602-13 0l-5.254-.227c-26.98-2.025-54.008-6.276-79.746-14.773l-4.355-1.082L296 343c.777-4.504.777-4.504 3-10l2.129-5.34q1.204-2.804 2.433-5.598l1.324-3.017C315.036 296.23 327.951 275.361 345 257h2v-2c8.448-7 8.448-7 11-7v-2c12.584-9.568 27.238-15 43-15m-34 22v2l-5 2c-3.679 2.474-6.863 4.863-10 8v2h-3c-2.594 2.922-2.594 2.922-5.5 6.75l-2.906 3.797C335 284.994 335 284.994 335 287h-2c-1.605 2.34-3.11 4.75-4.562 7.188l-2.442 4.042C324 302 324 302 323 307h-2c-.982 2.37-1.953 4.747-2.86 7.148-1.074 2.687-2.383 5.277-3.702 7.852-4.6 9.433-4.6 9.433-5.438 15 6.356 3.198 13.585 4.449 20.5 6l3.5.792c25.428 5.703 25.428 5.703 36.898 5.979 4.102.229 4.102.229 8.496 1.067 4.86.671 8.01.956 12.606-.838 2.761-7.42 2.064-15.172 1.8-22.969a1226 1226 0 0 1-.043-7.062 745 745 0 0 0-.255-14.83c-.17-6.356-.249-12.71-.293-19.068-.044-6.035-.13-12.068-.22-18.102l-.046-3.523c-.051-3.27-.13-6.538-.22-9.807l-.128-5.653L391 245c-8.496 0-16.5 4.298-24 8"/><path fill="#c4613f" d="M391.153 563.566c3.552-.33 6.384-.45 9.847.434 1.562 4.627 1.814 7.205 1.73 11.965l.083 3.852c.073 4.233.05 8.458.019 12.69q.024 4.38.06 8.76c.032 6.129.016 12.256-.032 18.385-.058 7.89.016 15.773.128 23.663.069 6.03.064 12.06.036 18.091q-.004 4.365.065 8.73c.219 16.325.219 16.325-2.089 23.864-5.852 2.313-10.376.263-16-2l-3.758-1.223C362.15 684.484 344.889 668.852 333 653v-2h-2c-11.998-15.785-35-49.03-35-70a152 152 0 0 1 9.938-3.312l3.113-.937c11.505-3.357 23.176-5.569 34.949-7.751l4.148-.902c14.254-3.055 28.665-2.559 43.005-4.532m-12.491 10.662-3.103.323c-1.153.12-2.305.24-3.492.362l-3.63.4-3.79.416C346.101 577.835 326.412 581.035 309 588c1.513 7.837 5.051 14.905 8.5 22.063l1.473 3.162c1.259 2.633 2.634 5.21 4.027 7.775l3 1 1 4c2.368 4.55 4.363 8.363 8 12l3 5c2.563 3.313 2.563 3.313 5 6h2l2 5c9.975 12.23 24.368 22.297 39.685 26.19L391 680c1.143-3.904 1.143-3.904 1.165-9.617l.047-3.132c.04-3.449.014-6.893-.017-10.34q.01-3.568.026-7.135c.014-4.997-.006-9.992-.048-14.989-.05-6.425-.021-12.848.032-19.273.033-4.915.023-9.829 0-14.744a627 627 0 0 1 .022-7.109c.022-3.307-.012-6.608-.062-9.915l-.022-5.715L391 574c-4.361-.623-7.987-.07-12.338.228"/><path fill="#c3613f" d="M403 231c13.187-2.366 27.948 5.522 39 12 3.894 2.775 7.456 5.794 11 9l2.426 2.066C468.613 265.392 480.214 280.43 488 296v3h2c3.659 6.835 6.8 13.94 10 21l2.473 5.45c5.657 12.9 5.657 12.9 4.527 18.55-3.57 1.664-3.57 1.664-8 3l-3.805 1.21C468.637 355.807 441.54 359.278 414 361l-5.7.764L403 361c-1.257-4.486-1.487-7.366-1.392-11.934l-.048-3.842c-.039-4.222.003-8.44.05-12.661q-.005-4.373-.018-8.744c-.007-6.121.024-12.24.084-18.361.074-7.87.058-15.738.015-23.608-.025-6.023-.006-12.044.027-18.066q.016-4.355-.006-8.709c-.013-4.049.031-8.093.092-12.141l-.046-3.684c.086-3.315.086-3.315 1.242-8.25m10 14c-1.217 3.91-1.217 3.91-1.34 9.633l-.1 3.137c-.097 3.453-.123 6.901-.142 10.355l-.105 7.141c-.063 5-.088 10-.09 15.002-.01 6.438-.155 12.865-.332 19.3-.115 4.92-.14 9.836-.139 14.757a258 258 0 0 1-.142 7.12C410.2 344.79 410.2 344.79 413 351c6.985 1.975 13.029.547 20-1a335 335 0 0 1 7.563-.875q3.72-.55 7.437-1.125l4.445-.621c14.678-2.14 29.689-4.977 43.555-10.379-.062-2.875-.062-2.875-2-7l-1.223-2.785C487.775 315.969 482.511 304.455 476 294h-2l-1-4c-3.228-5.795-6.118-10.484-11-15l-3.187-3.812L456 268h-2l-1-3-5-2-1-3c-9.183-7.425-21.864-15.479-34-15"/><path fill="#c3603f" d="M484 275h4v2h2c5.42 8.144 9.663 17.127 13.977 25.89 2.735 5.555 5.55 11.069 8.359 16.587C514 323 514 323 514.969 326.52L516 329c4.125-.937 4.125-.937 9-3 7.52-3.096 7.52-3.096 13-2v-2l4 1v6l-2 2h-3v2c2.162-.871 4.28-1.853 6.375-2.875C549.807 327 549.807 327 552 327l3 4 4 1v-2h2c-1 4-1 4-4.273 6.14l-4.102 2.11-4.086 2.14C545 342 545 342 542 342v2c-2.563 1.139-5.179 2.16-7.812 3.125l-4.395 1.633C526 350 526 350 523 350c.845 3.6 1.836 7.039 2.938 10.563 6.606 22.407 10.498 45.152 12.617 68.402l.312 3.211c.133 3.824.133 3.824-.47 7.967-.543 4.427-.789 7.6.603 11.857 5.947 2.451 12.057 1.63 18.375 1.238l5.65-.157c4.977-.15 9.942-.369 14.914-.62 7.009-.339 14.023-.55 21.036-.778q5.61-.193 11.218-.46l5.096-.218 4.522-.22L623 451v3a221 221 0 0 1-7 2v2c2 1 2 1 7.625 1.5l5.375.5v1c-12.8 1.31-25.712 1.7-38.569 2.103-5.98.193-11.939.459-17.907.894-31.867 2.27-31.867 2.27-42.524-2.997-6.504-10.2-4.673-22.988-3.414-34.495.504-5.489.052-10.096-.899-15.505l-.753-4.73L524 401l-.605-3.479c-2.818-16.02-6.241-31.629-11.075-47.166C511 346 511 346 511 344c2.647-1.236 5.346-2.362 8.063-3.437l4.535-1.81L528 337a919 919 0 0 0 7-3c-4.439 1.085-8.392 2.602-12.5 4.563-9.164 4.104-9.164 4.104-12.5 3.437-1.66-2.998-2.692-6.019-3.766-9.273-1.922-5.804-4.624-11.207-7.234-16.727l-1.914-4.176c-3.074-6.663-6.172-13.135-10.024-19.387-2.714-4.49-4.062-8.07-4.062-13.437l1-1z"/><path fill="#d17351" d="M290 596c4 9.829 4 9.829 4 14h2c1.168 2.398 2.232 4.847 3.25 7.313 2.188 5.169 4.442 10.165 7.188 15.062C309 637 309 637 309 639h2a621 621 0 0 1 5 9l2.313 2.875C320 653 320 653 320 656h2c4 4.353 4 4.353 4 8l3 1 2 4a240 240 0 0 1-14.437-4.5l-3.747-1.281L310 662v-2l-5-1c-8.663-3.96-17.117-8.65-25-14v-2l-4-1v-2l-4-1v-2l-2.562-.73c-4.504-1.664-6.999-4.253-10.438-7.582-6.738-6.48-6.738-6.48-10.437-9.418L246 617v-3a154 154 0 0 1 10.25-5.687l2.934-1.55C266.47 603 266.47 603 271 603v-2c13.776-6.741 13.776-6.741 19-5m225-1c2.84-.113 2.84-.113 6 1l2.992.902c2.694.968 5.353 2.03 8.008 3.098v2l5 1c3.65 1.54 7.229 3.13 10.813 4.813l2.966 1.33c2.47 1.158 4.856 2.496 7.221 3.857 0 4 0 4-3.312 7.688C540.673 634 540.673 634 537 634v2c-22.968 18-22.968 18-31 18v2a174 174 0 0 1-7 3l-3.625 1.875c-4.691 2.279-9.446 4.142-14.324 5.977A422 422 0 0 0 473 670v-3q2.494-2.008 5-4a744 744 0 0 0 4-6h2l1-5c1.637-2.508 1.637-2.508 3.688-5.125 4.015-5.355 7.225-10.947 10.312-16.875l2.125-3.84c4.978-9.09 8.857-18.057 12.074-27.918z"/><path fill="#d07251" d="M330 256c-2 5-2 5-5.187 8.625-6.844 7.853-11.625 16.664-16.333 25.918L307 293h-2a175 175 0 0 0-2 6c-1.903 4.222-3.907 8.387-5.918 12.559a159 159 0 0 0-3.695 8.476l-1.45 3.59-1.222 3.227L289 329c-5.116-.125-8.538-1.643-13-4l-5.25-2.125c-5.595-2.327-11.091-4.832-16.562-7.437l-4.77-2.254L246 311l1-4 4-2v-2h2l2-4c7.385-6 7.385-6 10-6v-2c5.132-4.264 10.176-7.739 16-11l3-3c33.133-21 33.133-21 46-21"/><path fill="#d17351" d="M475 257c11.962 2.334 23.371 7.048 34 13v2l4 1a151 151 0 0 1 9 5v2l4 1c4.25 2.438 4.25 2.438 8 5v2l4 2c4.471 3.008 8.287 6.106 12 10l4.313 4.125C558 308 558 308 558 311c-3.008 1.797-3.008 1.797-7.125 3.75l-4.422 2.125L542 319q-3.691 1.868-7.375 3.75c-15.382 7.664-15.382 7.664-19.625 6.25-1.543-3.254-1.543-3.254-3.187-7.562-4.924-12.403-10.787-24.1-17.813-35.438-4-6.737-4-6.737-4-9h-2a515 515 0 0 1-4.27-7.25c-2.487-3.952-5.627-7.274-8.73-10.75z"/><path fill="#c36241" d="M828 687h4c-2.222 5.555-5.133 8.913-9.004 13.379C821 703 821 703 820 707c2.476 13.008 7.03 25.776 10.903 38.424 3.528 11.57 6.877 23.185 10.16 34.826l1.445 5.118c4.238 15.1 6.552 25.772-.946 40.382-5.558 6.631-12.158 9.57-20.562 11.25-6.275.318-10.997-.312-16.875-2.5l-4.492-1.672c-6.201-2.447-12.34-5.025-18.469-7.644a892 892 0 0 0-16.789-6.871l-3.076-1.23a3014 3014 0 0 0-19.233-7.575l-4.585-1.794q-4.506-1.762-9.017-3.512l-4.124-1.612-3.707-1.442L718 800v-1c4-.187 4-.187 8 0v2l3-2 3-2c2.938 1.75 2.938 1.75 6 4l4 2 2 3c2.645 1.133 2.645 1.133 5.813 2.125l3.144 1.008c2.647.754 5.344 1.327 8.043 1.867v-3h3v2l3 1 1 6c4.398 1.466 8.66.966 13.262.84L784 818v2h4v3h2v4l4-2 1-3h3l2-4h3l3-4 5-1-1-3c3.438-.937 3.438-.937 7-1v4l5 1 1-2c2.747 5.493.136 12.321-1 18l2.313-2.062L827 826l3 1v2c5-3 5-3 7-5l-3-5v-5l2-1v-6h2v-3h-2c0-5 0-5 1.563-9.312 1.984-6.47 1.244-10.557-1.125-16.813C835 774 835 774 835 768h-2v-7h-2a136 136 0 0 1-3-7l-1-2v-6h-3v5h-1c-1.216-6.568-1.216-6.568 0-9h-2l-1 3-4-1q-.579-3.489-1-7l-3-3-1-3-3 3h-2v2h-2l-1 5h-1c-.25-3.5-.25-3.5 0-7h3c2-5 2-5 1-8h5c1.188-4.875 1.188-4.875 2-10l2-2h1c.209-3.938.32-7.874.426-11.816L817 699l4 1q.57-2.988 1-6h3v-2h3z"/><path fill="#d07452" d="M591 281c5.414 3.248 7.364 5.912 11 11a763 763 0 0 0 3.805 4.918c7.27 9.393 14.4 18.681 20.195 29.082l1.934 3.453c2.084 3.82 4.084 7.673 6.066 11.547l2.152 4.086C648.512 369.63 660 401.344 660 429l-3-1c-.441-3.746-.441-3.746-.562-8.437-.23-8.355-.23-8.355-2.438-10.563-2.442-4.885-3.005-6.626-2.937-12.187L651 392h-2l-2-5-5-1-1-3h3l-.937-2.375c-1.447-4.934-.133-8.674.937-13.625h-2v-5h-2l-1-5h-2l-1-5h-2a228 228 0 0 0-3 9l-1 2 4-1 1 2h-3v2l-3.312.438C625 367 625 367 622 370v5c-5.314-2.657-5.988-5.396-8.09-10.758-1.643-5.854-.363-11.052.84-16.867L615 345h-3l-1 3c-4-6.75-4-6.75-4-9l-2-2 1-2h2l1-3 1 2 4-1c1.75-3.562 1.75-3.562 3-7l2 3 1-1v-6l-3-1-1-5-3-1-.437-3-.563-3-4-1a239 239 0 0 1-4-8l-3-2-1-5h-2c-4-4.47-4-4.47-4-7l-3-1z"/><path fill="#d07251" d="m492 218 1 2h-5v2c2.414.123 4.834.12 7.25.063 4.27-.095 7.593-.102 11.75.937v2h6v2c1.986.706 3.988 1.369 6 2l3 2-1 4h2l1 3-1 1 2.5 1.688L528 243c0 3.313 0 3.313-1 6l-3-1-1 2 2 1c-5 1-5 1-9 0l-.375 3.063L515 257c-5.615-.72-11.007-4.474-16-7-7.557-3.66-15.35-6.041-23.379-8.437L472 240v-4l4 2v-2l2-2-.437-5.875c-.07-3.258-.07-3.258.437-6.125 5.003-3.285 8.03-4 14-4"/><path fill="#d17352" d="M576.625 626.313 580 628l3 1-2 4 1 3h5l1 2h-2v2l-1 1 4-1v-1h5l-1-2h-3l1-3c3.688.5 3.688.5 7 2l-2 5h-2v2h-2v2a310 310 0 0 1-5.43 4.715c-4.222 3.754-8.1 7.85-12.03 11.906C572 664 572 664 570 664v2a226 226 0 0 1-8.687 6.563l-2.632 1.91Q554.847 677.246 551 680l-3.7 2.68c-7.047 5.01-14.338 9.875-22.3 13.32l-2-1 1-3 8-2 1-3h6l1-5 2-2c.25-4.062.25-4.062 0-8l-2-1 5-3 2-2 1 3h2v-3h2l-1-4h4l-1-4 3-1 1-5a560 560 0 0 1 8-2l-1-4c2-4 2-4 4-6l-2.625-2-2.375-2 4-2 1-3h-2l1-4c5-2 5-2 8.625-.687"/><path fill="#bf6749" d="M503 770c5.27 0 9.065.298 14 2v4c3.625.625 3.625.625 8 1 3.5.938 3.5.938 6 2v2c3.003-.3 6.004-.636 9-1l2 1v2l3.875.438L550 784l2 3c3.22.837 6.479 1.523 9.75 2.125l5.36 1.008L572 791l3.64.742L578 792v-2h2v2h5v2c4.5-.25 4.5-.25 9-1v-2c4.438-1.312 4.438-1.312 9-2l1 3h2v-2l2 1v4c8.293 1.429 16.86-.392 25-2 4.188-.25 4.188-.25 7 0v2c4.154.009 8.23-.103 12.375-.312l3.563-.147c8.777-.399 8.777-.399 11.062-1.541h6v-2h3v-2l6-1v-2c3.333-.062 6.67.028 10 .188l5.625.23L702 787v3h3v3h9l-1 3 5 2c-5.745 1.915-11.982-2.816-17.266-5.215-7.792-2.938-12.908-1.66-20.797.528-10.89 2.828-21.77 4.418-32.937 5.687l-4.723.566c-46.985 3.86-98.035-5.01-139.277-28.566z"/><path fill="#c36040" d="M635 286c23.576-2.111 53.069 5.519 75 14l3.7 1.398c12.62 4.904 24.836 10.37 36.3 17.602l-2 1-2.812-1C742 318 742 318 737 319v-2c-2-1-2-1-6-2l-1 2h-3l-1 2c-5-2-5-2-6-3h-2v-2c-2 1-2 1-3 3l-4 1v-2h-2l-1 2v-2h-2l-3-5-3-1v-4h-2v2h-2v5l-2 1-1.437-4.5L691 305l-3 1-1-2-3 1-4-1 2-5c4.125-1.312 4.125-1.312 8-2l-5 .063-5-.063v-1c-3.5-.687-3.5-.687-7-1v2c-4-.187-4-.187-8-1v-3c-8.413-4.47-16.594-4.767-26-5l2 3v5h4c.727 2.65 1.39 5.32 2 8l3 2-1 4c-14-19.714-14-19.714-14-24"/><path fill="#c46140" d="M731 797c2.531 1.012 2.531 1.012 5.5 2.688l2.969 1.636C742 803 742 803 744 806c2.645 1.133 2.645 1.133 5.813 2.125l3.144 1.008c2.647.754 5.344 1.327 8.043 1.867v-3h3v2l3 1 1 6c4.398 1.466 8.66.966 13.262.84L784 818v2h4v3h2v4l4-2 1-3h3l2-4h3l3-4 5-1-1-3c3.438-.937 3.438-.937 7-1v4l5 1 1-2c1.88 3.76 1.155 7.414.125 11.313C822 826 822 826 820 827c0 6 0 6 1 8-6.147.341-11.176-.094-17-2l-4.184-.852c-4.757-1.134-8.843-2.685-13.316-4.648a883 883 0 0 0-22.125-9.187l-3.074-1.229c-6.402-2.55-12.815-5.07-19.235-7.576l-4.585-1.794q-4.506-1.762-9.017-3.512l-4.124-1.612-3.707-1.442L718 800v-1c4-.187 4-.187 8 0v2c3-2 3-2 5-4"/><path fill="#c36342" d="M750 320c14.134 5.653 26.733 15.967 38 26l3.41 2.824C806.326 361.196 832.092 383.368 837 403l-3-1v-3l-3-1c-3-3-3-3-5-7-2-3-2-3-5-4l-1-2a127 127 0 0 0-6-2l-2-1v-2l-3.437 1.125L805 382l-1-4h-2c-.395-2.324-.722-4.66-1-7l-1-3 5-2c-6.351-2.162-6.351-2.162-11-1l-2-1v2l-10 2-2-4h-2c-1.5-3.375-1.5-3.375-2-7 2.75-1.062 2.75-1.062 6-2 1.5-3.125 1.5-3.125 2-6h-2l-1-5h-2c-4.767-4.302-4.767-4.302-6-8h-6v-2c-3-1-3-1-6.125.188L758 335l-1-4-4-1 1-4-4 1z"/><path fill="#c36141" d="M856 439c20.786 20.786 22.217 75.697 22.375 103.563-.172 24.255-2.307 51.768-11.375 74.437-2.006-6.02.224-13.49 2.063-19.437 1.284-4.882 1.383-9.715 1.593-14.747L871 580h2c.122-2.81.12-5.626.063-8.437A328 328 0 0 1 873 563l1-1c2.12-48.808 2.12-48.808-5-70-.603-3.977-.994-7.934-1.375-11.937L867 477l-3-1c.313-3.562.313-3.562 1-7l-4 2-1 5-5 1-4 3c-3.234.398-3.234.398-6.75.375l-3.547.023L838 480v-3l-3 1-2-5-1-2 3 .938 3 .062c.25-3.437.25-3.437 0-7h2v3l5 1 4 3 1-2h4v-2h2c-.072-3.004-.26-6.005-.5-9s-.428-5.996-.5-9h2q-.375-5.511-1-11"/><path fill="#c36341" d="m518 730 2 2h-3v2l-4 2-1 2-3.062 1-2.938 1v2l5 1c-.687 2.625-.687 2.625-2 6l.063 3.688C509 756 509 756 506 759l-1-2c-3.687 1.688-3.687 1.688-7 4 1.59 2.386 3.28 4.706 5 7v2c-12.037-2.973-23.256-12.692-33-20v-2c2.257-.849 4.56-1.573 6.875-2.25 1.46-.44 2.918-.882 4.422-1.336L486 743c10.313-3.185 19.92-6.622 29.375-11.875z"/><path fill="#c46848" d="M832 753c2.615 3.923 3.496 7.763 4.785 12.305l1.608 5.644.83 2.947a3010 3010 0 0 0 2.521 8.881c7.786 27.446 7.786 27.446-.182 42.973-5.558 6.631-12.158 9.57-20.562 11.25-7.917.609-13.661-1.3-21-4 4-1 4-1 7.25-.062 4.232 1.199 7.392 1.827 11.75 1.062.313-4 .313-4 0-8h3v4l2.313-2.062L827 826l3 1v2c5-3 5-3 7-5l-3-5v-5l2-1v-6h2v-3h-2c0-5 0-5 1.563-9.312 1.984-6.47 1.244-10.557-1.125-16.813C835 774 835 774 835 768h-2a253 253 0 0 1 0-8 173 173 0 0 0-1-7"/><path fill="#c26446" d="M624 650c0 3 0 3-1 8l-2.625 2-2.375 2 1 5-3 3 4.063-.312L624 670l-1 5-1-3h-2l.125 4-.125 4h-4v4h-2v-2h-4l-1-3-1 5h-3l-2-4c-2.277 1.324-2.277 1.324-4.937 3.688-4.835 4.236-4.835 4.236-8.063 5.312l-1.937 2.438C586 694 586 694 582 696l-2.437 2.5C577 701 577 701 572 703l-1 2-4.875 1.875C561 709 561 709 558 713l-5 1a283 283 0 0 0-5 5c-3.187 1.938-3.187 1.938-6 3l-2-2c3.615-2.462 7.262-4.734 11-7 11.92-7.527 23.65-15.085 34.125-24.562C589 685 589 685 591 685v-2c5.476-5 5.476-5 8-5v-2a800 800 0 0 1 8-7l2-3h2l2-4a211 211 0 0 1 5.625-6.25l3.04-3.266c.77-.82 1.54-1.64 2.335-2.484"/><path fill="#b56549" d="M668 345h6c1.136 3.897.995 7.384.938 11.438L675 360h2l-.062 3.938L677 368l3 1c1.91 6.439 3 11.266 3 18h2l-.062 4.438L685 396l3 1c7.104 18.91 7.17 39.859 7.125 59.75l.012 5.27-.004 5.09-.004 4.592c-.125 4.178-.392 8.182-1.129 12.298h-2c-.125 2.58-.12 5.167-.062 7.75.205 18.964.205 18.964-2.938 25.25a160 160 0 0 0-1.625 6.25L686 529c-1.287-5.147-.254-8.549.813-13.75 6.122-32.053 6.484-66.057 1.187-98.25l-.809-4.984c-3.623-19.907-9.504-39.514-16.843-58.356C669 350 669 350 668 345"/><path fill="#d27553" d="m498 217-4 2v-2h-5v-2l-3 1v-2l-3 1v-2l-2.875.063c-5.13-.078-9.31-1.348-14.125-3.063v-2c-3.089-.293-6.18-.576-9.277-.754C454 207 454 207 453 206c-8.929-1.145-17.469-.808-26.441-.262-7.72.443-15.292.42-22.997-.3C398 205 398 205 393 206l-1-2c-7.811-.53-15.713-.203-23.5.563-5.072.403-9.492.272-14.5-.563v-1c47.92-8.104 98.855-4.858 144 14"/><path fill="#c98e78" d="M866 467c21.077 31.616 13.825 92.31 6.74 127.967-3.247 15.8-3.247 15.8-5.74 22.033-2.006-6.02.224-13.49 2.063-19.437 1.284-4.882 1.383-9.715 1.593-14.747L871 580h2c.122-2.81.12-5.626.063-8.437A328 328 0 0 1 873 563l1-1c2.115-48.688 2.115-48.688-3.504-65.5-1.539-4.629-2.164-8.778-2.621-13.625-.518-5.315-1.077-10.594-1.875-15.875"/><path fill="#ca856c" d="M731 797c2.531 1.012 2.531 1.012 5.5 2.688l2.969 1.636C742 803 742 803 744 806c2.645 1.133 2.645 1.133 5.813 2.125l3.144 1.008c2.647.754 5.344 1.327 8.043 1.867v-3h3v2l3 1 1 6c4.398 1.466 8.66.966 13.262.84L784 818v2h4v3h2v4q3.5.063 7 0v3l3 1-2 1a342 342 0 0 1-12.375-4.937l-7.484-3.098-3.721-1.548a1094 1094 0 0 0-13.045-5.292l-4.68-1.871a2529 2529 0 0 0-14.265-5.602c-1.512-.59-3.023-1.182-4.58-1.791q-4.565-1.785-9.134-3.558l-4.2-1.643-3.804-1.48L718 800v-1c4-.187 4-.187 8 0v2c3-2 3-2 5-4"/><path fill="#c26342" d="M865 607h2c.654 10.24-2.4 19.09-6.312 28.375l-1.475 3.652c-2.498 6.126-5.148 12.105-8.213 17.973-1-2-1-2-.125-5.312 1.828-7.616 2.666-14.983 1.125-22.688l-3 1-1-3h3l-1-3c-.375-4.125-.375-4.125 0-8l5-1 2 2h3l1-5 3-1z"/><path fill="#c9886f" d="M503 770c5.27 0 9.065.298 14 2v4c3.625.625 3.625.625 8 1 3.5.938 3.5.938 6 2v2c3.003-.3 6.004-.636 9-1l2 1v2l3.875.438L550 784l2 3c3.04.879 3.04.879 6.625 1.563 2.14.41 4.271.871 6.375 1.437v2c2.957.344 2.957.344 6.813.5 6.856.28 6.856.28 10.187 2.5q5.495.562 11 1l3 1c10.747 1.228 21.446 1.08 32.25 1q5.32-.038 10.64-.062l4.72-.036L647 798v1c-47.568 6.43-102.352-4.211-144-28z"/><path fill="#d59d87" d="m175 742 1 2h3v3h2v3h2l2 4 2 1v3l4-1 2.438 1.375c5.242 2.391 10.816 2.804 16.562 2.625v-2l3.5.188L217 759v-5l1 2 5-1-1-4h11l1-4c3.478-2.319 4.903-2.243 9-2.187l3.188.019C249 745 249 745 252 746v-2l3 1c-3.64 3.64-9.006 4.902-13.75 6.75-8.288 3.265-16.53 6.583-24.676 10.191-7.579 3.117-15.497 2.788-23.324.934-9.234-4.074-13.708-9.132-18.25-17.875z"/><path fill="#cf7555" d="m278 230 2 1c-1.062 2.938-1.062 2.938-3 6l-5 2v3c-.875 3.188-.875 3.188-2 6h-2l-1 4c-4 1-4 1-7.312.375L257 252l1 3-2.5-1.125c-4.495-1.124-7.183-.458-11.5 1.125l-2 4c-3.864 2.989-7.806 5.484-12 8l-2-1c13.44-15.155 32.825-25.695 50-36"/><path fill="#c66c4e" d="M837 403c8.368 8.368 15.183 21.774 19 33l-1 3-2-2-5 2 .5-2.75c.5-3.25.5-3.25.5-7.25-3.437 1-3.437 1-7 3l-1 4h-5l-1-3-2-1v2h-3v-3l3-3c4-4.571 4-4.571 4-8h2l1-3-2-1v-5l-1-1-3 3-1-5 4-1z"/><path fill="#d07454" d="m630 578 2 1-1 4 3-1c-4.59 15.608-15.354 29.196-25 42l-3.328 4.648L603 632c-1.703-3.406-.745-6.39 0-10l4-1-1-2-3-1-1-3 3-3h2l-1-3 2-3 3-.437 3-.563 2-4h4l1-2h2v-4h2v-2h2c.598-3.027.598-3.027 1.063-6.937.844-6.97.844-6.97 1.937-8.063"/><path fill="#cb8c73" d="M635 286c28.156-2.521 61.462 7.965 87 19-4 2-4 2-7 2v-2l-3.5-1-3.5-1v-2c-2.668-.562-2.668-.562-6.187-1-4.478-.563-7.54-1.29-11.813-3-3.333-.04-6.667-.044-10 0v-1c-3.5-.687-3.5-.687-7-1v2c-4-.187-4-.187-8-1v-3c-8.413-4.47-16.594-4.767-26-5l2 3v5h4c.727 2.65 1.39 5.32 2 8l3 2-1 4c-14-19.714-14-19.714-14-24"/><path fill="#ce6d4a" d="M401 564h1c.135 4.044.2 8.072.225 12.117l.034 3.902c.11 13.459.158 26.918.201 40.377q.034 9.604.123 19.208.103 11.553.12 23.108.015 4.421.068 8.842c.045 4.11.048 8.218.04 12.329l.071 3.74c-.033 3.366-.033 3.366-.882 8.377-3.32.797-3.32.797-7 0l-3.691-.629c-12.975-3.129-23.875-7.95-34.309-16.371l-4-2.75-3-2.25v-2l-4-2c-6.823-6.234-12.924-13.26-18-21l1-2 2 4h2l2.75 3.625C349.173 672.318 366.938 687.207 389 692l2.997.94c3.187.85 3.187.85 9.003 1.06 1.367-4.469 1.514-7.126 1.346-11.707v-3.841c-.013-4.234-.111-8.462-.21-12.694q-.036-4.376-.058-8.753c-.052-7.711-.174-15.42-.312-23.13-.13-7.856-.198-15.71-.268-23.566a4048 4048 0 0 0-.363-30.492q-.057-3.773-.126-7.545c-.04-2.757-.031-5.515-.009-8.272"/><path fill="#d79c84" d="M354 204a390 390 0 0 1-10.562 5.063l-3.442 1.597C337 212 337 212 334 213l1 2c-4.32 1.61-6.46 2.135-11 1-10.353.353-10.353.353-15 5l-5 1 1 5c-2.672-.286-5.338-.63-8-1a221 221 0 0 0-7 3c-3.323.42-6.658.771-10 1 16.206-12.154 37.648-17.666 56.938-22.937l3.394-.93C345.045 204.882 349.1 204 354 204"/><path fill="#cf7150" d="m216 283 2 1-1 2 5-1 1 5 5 2 3 3c-1 4-1 4-3.125 6.375C226 304 226 304 225.938 307.125 227 310 227 310 232 313l-2 1-4-2-3.25-.312L220 311v-11h-2l-1 2-4-2-3-1v-2l3-.875 3-1.125v-4a180 180 0 0 0-6-1l1-3h2v-2z"/><path fill="#ce917a" d="M828 687h4c-2.222 5.555-5.133 8.913-9.004 13.379C821 703 821 703 820 707c.56 2.794 1.249 5.563 2 8.313l1.387 5.082a889 889 0 0 0 6.377 21.126C832 748.688 832 748.688 832 752h-2v-5h-2l-1-6h-2c-2-4-2-4-1.312-7.125L824 731l-5-2 1-5-3-5v6l-3-1c-1.375-2.812-1.375-2.812-2-6l3-4h1c.209-3.938.32-7.874.426-11.816L817 699l4 1q.57-2.988 1-6h3v-2h3z"/><path fill="#cd795a" d="M636 348c7.056 7.056 9.527 19.175 12.5 28.563l1.178 3.7C660 413.028 660 413.028 660 429l-3-1c-.441-3.746-.441-3.746-.562-8.437-.23-8.355-.23-8.355-2.438-10.563-2.442-4.885-3.005-6.626-2.937-12.187L651 392h-2l-2-5-5-1-1-3h3l-.937-2.375c-1.447-4.934-.133-8.674.937-13.625h-2v-5h-2l-1-5h-2c-.56-3.019-1-5.925-1-9"/><path fill="#cf9682" d="M668 345h6c1.136 3.897.995 7.384.938 11.438L675 360h2l-.062 3.938L677 368l3 1c1.91 6.439 3 11.266 3 18h2l-.062 4.438L685 396l3 1c5.013 14.267 4.547 30.052 4 45h-1a532 532 0 0 1-1.312-11.25c-3.062-26.532-9.647-52.206-19.34-77.09C669 350 669 350 668 345"/><path fill="#d5967d" d="M498 218c17.313 3.463 33.542 14.272 48 24l3.828 2.531c7.002 4.708 7.002 4.708 9.172 6.469l-2 1c-2.566-1.031-2.566-1.031-5.562-2.5L546 247l-1 1-3 1v-5h-2v-2h-5v-2h-3v2l-4-2-1-4-3.062-.5L521 235v-4a179 179 0 0 0-8-4v-2h-6v-2l-5-1v-2h-4z"/><path fill="#d7a08a" d="M185 316c1.297 5.188-.047 7.066-2.25 11.875l-1.89 4.18L179 336l-1.61 3.508L176 342h-2v4h-2v4h-3c-.844 2.598-.844 2.598-1.5 6.063-1.042 4.986-2.246 9.34-4.5 13.937l-2 4.125c-1.557 3.017-3.253 5.963-5 8.875l-2 5c-1.715-5.144 1.297-10.035 3.125-14.937l1.188-3.268c4.177-11.391 8.716-22.313 14.625-32.92l1.513-2.762c3.377-6.125 6.921-12.133 10.549-18.113"/><path fill="#d3a08d" d="m518 730 2 2h-3v2l-4 2-1 2c-6.23 3-6.23 3-10 3v2h-4v2c-2.673.033-5.347.057-8.02.012A57 57 0 0 0 479 746v2l-3 1-1 3h6l1 3c5 2 5 2 8.188 2.375L493 758l2 4 2 1v2l3-1c3 4 3 4 3 6-12.037-2.973-23.256-12.692-33-20v-2c2.257-.849 4.56-1.573 6.875-2.25 1.46-.44 2.918-.882 4.422-1.336L486 743c10.313-3.185 19.92-6.622 29.375-11.875z"/><path fill="#c66b4c" d="m836 653 4 3v2h4v2h3l1-4 2 1c-1.174 5.253-3.938 9.384-6.812 13.875l-2.583 4.055L838 679l-2.7 4.633L833 687c-2-2-2-2-3-4h4c.55-9.35.55-9.35-1-14l3-3v-2l-2-1 1-3-2-1 1-5z"/><path fill="#daab96" d="M356.82 719.648c18.548 4.326 36.574 4.717 55.493 4.477q5.565-.053 11.132-.091 3.43-.025 6.86-.07c2.565-.025 5.13 0 7.695.036v1c-33.867 3.831-68.459 2.78-101.484-6.133C333 718 333 718 329.046 717.445L326 717v-1c11.254-1.542 19.983.71 30.82 3.648"/><path fill="#d5a592" d="M152 389h1c.306 4.821.154 8.538-1.383 13.14-1.732 5.205-2.776 10.275-3.742 15.673l-1.008 5.519c-1.908 12.474-2.05 24.757-2.054 37.356l-.038 5.185c-.012 10.75.153 21.541 2.225 32.127l2 2c.309 4.226.514 8.394.625 12.625l.117 3.586c.095 2.93.177 5.86.258 8.789-2.42-4.84-3.145-9.59-4-14.875l-.526-3.242C139.34 467.847 140.584 427.032 152 389"/><path fill="#c87a5e" d="M795 353c8.098 4.86 13.905 11.872 20 19l2.496 2.832c7.145 8.22 13.936 16.786 19.504 26.168l-1 2-2-1v-3l-3-1c-3-3-3-3-5-7-2-3-2-3-5-4l-1-2a127 127 0 0 0-6-2l-2-1v-2l-3.437 1.125L805 382l-1-4h-2l1-4h3v4h6v-4l-3-3v-2h-2l-1.187-2.562c-2.455-4.655-6.023-9.043-10.813-11.438z"/><path fill="#d58e73" d="M165 570c3 4 3 4 3 6h5l1-2h2l-1 4 3 2v2h-3l1 4c3.563-1.25 3.563-1.25 7-3l-1.187 4.438L181 592l3 1c1.188 4.563 1.188 4.563 2 9l2-3c1 4 1 4 0 7h-2c.875 3 .875 3 2 6-3.964-3.964-6.026-7.297-8.687-12.187l-2.63-4.829L174 590l-2.652-4.86C165 573.389 165 573.389 165 570m16 24 1 2 1-2z"/><path fill="#c6765a" d="M150 403h1c.188 5 .188 5 0 10h-2c-.154 3.981.009 7.932.125 11.914-.099 4.02-.465 7.523-1.11 11.461-1.371 8.992-1.307 17.921-1.265 27l-.023 5.098.007 4.925.007 4.428c.266 4.285 1.17 8.031 2.259 12.174.25 5.375.25 5.375 0 10l-2 2c-2.83-13.741-3.302-27.2-3.312-41.187l-.016-5.069c.081-14.83 1.4-29.34 4.39-43.869l1.036-5.133z"/><path fill="#d09b86" d="M684 529c2 2 2 2 2 6h-2a740 740 0 0 0-1 9l-2 4c-.35 2.43-.634 4.87-.875 7.313-.7 5.717-1.49 10.029-5.125 14.687h-2v3.25c0 3.75 0 3.75-2 7.75l-3 3-1 5.188-1 4.812h-3v5c-2 4-2 4-7 6v3h-2c1.816-4.54 3.878-8.876 6.036-13.259 9.066-18.493 16.111-37.103 21.352-57.03.788-2.927 1.687-5.824 2.612-8.711"/><path fill="#d4947c" d="M567 661h2l1 5c-2.83 2.541-5.507 4.618-8.625 6.75l-2.645 1.87a686 686 0 0 1-5.29 3.691 402 402 0 0 0-6.143 4.357C540.265 687.7 532.96 692.556 525 696l-2-1 1-3 8-2 1-3h6l1-5 3-1v-2h2l2-4c3-2 3-2 7-2v-2l2-2v-3h2v-2h2v3c3.5 0 3.5 0 7-1z"/><path fill="#c7785d" d="M750 320c5.27 2.108 9.77 4.859 14.5 7.938l2.692 1.75C774.623 334.6 781.354 340.073 788 346l4.563 3.563L795 352l-4 2v-3l-2.937-.937L785 349l-1-4h-2v-2l-2.812-.812C776 341 776 341 773 336h-6v-2c-3-1-3-1-6.125.188L758 335l-1-4-4-1 1-4-4 1z"/><path fill="#d1957f" d="M682 786c3.333-.062 6.67.028 10 .188l5.625.23L702 787v3h3v3h9l-1 3 5 2c-5.745 1.915-11.982-2.816-17.266-5.215-7.942-2.995-13.287-1.582-21.359.59-20.538 5.311-20.538 5.311-30.375 4.625v-1a246 246 0 0 1 7.875-1.5c7.918-1.396 7.918-1.396 10.125-2.5h6v-2h3v-2l6-1z"/><path fill="#deab95" d="M444 202v1c-6.796.234-13.49-.3-20.254-.879L421 202v1c-3.211.15-6.426.229-9.64.281l-3.008.056q-4.8.088-9.602.163c-11.952.196-23.84.405-35.75 1.5-5.25-.375-5.25-.375-9-1v-1c29.827-5.044 60.06-5.458 90-1"/><path fill="#ce927d" d="m599 676 2 1c-1 3-1 3-6 6l-1 4-4 2-2 2.5c-2 2.5-2 2.5-6 4.5l-2.437 2.5C577 701 577 701 572 703l-1 2-4.875 1.875C561 709 561 709 558 713l-5 1a283 283 0 0 0-5 5c-3.187 1.938-3.187 1.938-6 3l-2-2c3.615-2.462 7.262-4.734 11-7 11.92-7.527 23.65-15.085 34.125-24.562C589 685 589 685 591 685v-2c5.476-5 5.476-5 8-5z"/><path fill="#c97b60" d="m717 305 2 1h6c8.823 3.314 17.046 7.983 25 13l-2 1-2.812-1C742 318 742 318 737 319v-2c-2-1-2-1-6-2l-1 2h-3l-1 2-5-2 2-3v-3a400 400 0 0 0-10 0v-2h2v-2h2z"/><path fill="#d79d86" d="M187 682h1c-.388 6.147-.897 12.204-1.687 18.313L186 704h2l1 4-4 3-1 3h-2v2h-2c-.753 2.307-1.403 4.648-2 7l-1.062 3.25c-1.22 4.88-1.506 9.747-1.938 14.75h-1c-.83-12.052 1.823-21.98 5.375-33.437l1.54-5.124q1.41-4.693 2.848-9.378a288 288 0 0 0 2.337-8.092z"/><path fill="#daa792" d="M660 432h1c2.957 25.703 2.491 51.493-2 77h-1v-8h-1a128 128 0 0 1 0-8l1-1c.835-10.608.992-21.283 1.25-31.918l.127-5.218q.123-5.232.23-10.464l.112-4.86.092-4.4z"/><path fill="#ce8a71" d="M835 825h5c-2.212 5.53-2.74 5.873-7.812 8.25l-3.145 1.516c-10.413 4.223-18.997 1.93-29.043-1.766 4-1 4-1 7.25-.062 4.232 1.199 7.392 1.827 11.75 1.062.313-4 .313-4 0-8h3v4l2.313-2.062L827 826l3 1v2l5-3z"/><path fill="#d3957e" d="m252 744 3 1c-3.762 3.762-9.407 5.08-14.312 7l-3.46 1.367q-3.197 1.263-6.397 2.52c-2.614 1.028-5.223 2.07-7.831 3.113l-3-1 1-3h2l-1-4h11l1-4c3.478-2.319 4.903-2.243 9-2.187l3.188.019C249 745 249 745 252 746z"/><path fill="#c6765b" d="M662 599h1c.914 5.018 1.519 9.913 1 15-3.875.813-3.875.813-8 0l-1 2v-2h-3l-2 5h-2l-1 5-1 3-5 2c1.718-4.294 3.564-7.73 6-11.625l2.125-3.414q1.902-3.004 3.875-5.961h3v-3l5-2z"/><path fill="#d5957c" d="M210 284v3l-2 2-1 4h-2c-1.187 3.375-1.187 3.375-2 7l1 2c-2.125 4.063-2.125 4.063-5 8l-5 1a283 283 0 0 0-5 5h-3c4.876-12.19 15.457-22.21 24-32"/><path fill="#d19883" d="M832 753c2.615 3.923 3.496 7.763 4.785 12.305l1.608 5.644.83 2.947a3010 3010 0 0 0 2.521 8.881C848.64 807.082 848.64 807.082 845 818c-1.623-4.868-.522-9.77-.059-14.824.02-1.048.04-2.096.059-3.176h-2a126 126 0 0 1-2-6l-2-4-.437-3.75C838 782 838 782 836.438 777.875 835 774 835 774 835 768h-2a253 253 0 0 1 0-8 173 173 0 0 0-1-7"/><path fill="#ce8c74" d="M865 617c1.163 4.652.573 5.883-1.168 10.234l-1.459 3.68-1.56 3.836c-.496 1.25-.992 2.5-1.502 3.79-2.52 6.298-5.147 12.45-8.311 18.46-1.666-3.331.112-6.502 1-10v-5h2l1-5h2c0-6 0-6-2-9l2-3-1-2 1-2c2 1 2 1 3 2l3-5z"/><path fill="#d69f88" d="M591 281c5.422 3.253 7.36 5.9 11 11a915 915 0 0 0 3.945 5.164l2.075 2.711a5590 5590 0 0 0 4.234 5.523c7.643 9.999 7.643 9.999 9.746 13.602l-1 2h-4l-1-5-3-1-.437-3-.563-3-4-1a239 239 0 0 1-4-8l-3-2-1-5h-2c-4-4.47-4-4.47-4-7l-3-1z"/><path fill="#d69881" d="M559 252c11.92 5.96 23.545 17.833 32 28-3 1-3 1-7 0l-4-4v-2l-3-1v-2l-4-1v-3h-2l-1-4h-2v-2h-2l-1-3-3.062-.937L559 256z"/><path fill="#c87a60" d="M828 687h4c-1.836 4.59-3.43 7.002-6.562 10.688-5.11 6.042-5.527 8.268-5.278 16.464C820 717 820 717 818 720l-1-1v6l-3-1c-1.375-2.812-1.375-2.812-2-6l3-4h1c.209-3.938.32-7.874.426-11.816L817 699l4 1q.57-2.988 1-6h3v-2h3z"/><path fill="#cb876f" d="m767 817 4 1c3.437.03 6.86-.066 10.297-.16L784 818v2h4v3h2v4q3.5.063 7 0v3l3 1c-2 1-2 1-4.61.135l-3.28-1.373-3.59-1.487-3.77-1.587a5776 5776 0 0 0-7.328-3.051l-3.294-1.384C771 821 771 821 767.474 819.96L765 819z"/><path fill="#d4937b" d="m310 715 5 1 3-1v2c3.5.125 3.5.125 7 0-5.16 3.87-10.6 5.874-16.562 8.25l-3.483 1.43c-8.59 3.442-8.59 3.442-11.955 2.32l4-1 1-3h4v-2h4v-3h2l1-4z"/><path fill="#e4beac" d="M561 792a225 225 0 0 1 8.813.313l4.957.238C579 793 579 793 582 795q5.495.562 11 1l3 1c10.747 1.228 21.446 1.08 32.25 1q5.32-.038 10.64-.062l4.72-.036L647 798v1c-28.46 3.847-58.264.892-86-6z"/><path fill="#d79b84" d="M150 526c3 4 3 4 4.313 8.438 1.846 4.992 3.555 6.418 7.687 9.562l1 4-1 1c.09 2.69.247 5.378.438 8.063l.308 4.472L163 565c-2.763-2.763-3.362-5.568-4.602-9.273l-1.484-4.438-1.539-4.664-1.562-4.64-1.477-4.446-1.358-4.087C150 530 150 530 150 526"/><path fill="#daa793" d="M647 375c2.91 4.365 4 9.254 5.438 14.25l.947 3.284c3.402 11.977 6.303 23.967 6.615 36.466l-3-1c-.441-3.746-.441-3.746-.562-8.437-.23-8.355-.23-8.355-2.438-10.563-1.88-3.76-2.454-6.104-3-10.187-.765-5.34-1.67-10.578-3-15.813h-1a256 256 0 0 1 0-8"/><path fill="#d8a995" d="M495 709c-9.417 9.417-39.52 14.69-52.812 15.125L439 724v-1l5.5-.937L450 721v-2c4.166-.41 8.317-.511 12.5-.656L466 718v-2c5.519-1.729 10.199-3 16-3v-2c4.665-3.11 7.557-3.089 13-2"/><path fill="#c98066" d="M856 439c3.453 3.453 4.542 8.354 6.188 12.875l1.154 3.05C866.12 462.52 866.12 462.52 865 467v-2h-2v-2l-3.437.125L856 462c-1.155-4.161-1.046-7.611-1-12h2q-.375-5.511-1-11"/><path fill="#d79c85" d="M657 509h1c.27 4.946-.337 9.068-1.68 13.816l-1.066 3.815-1.129 3.932-1.105 3.943c-3.386 12.01-3.386 12.01-5.02 16.494h-1a282 282 0 0 1-.25-10.375l-.078-5.836L647 530l3-2 1-4 3-2c.914-3.04.914-3.04 1.625-6.625.43-2.13.88-4.258 1.375-6.375"/><path fill="#e1b7a5" d="M691 443h2c.207 2.643.262 5.298.266 7.95l.012 5.16-.028 5.577-.016 5.618c-.076 11.191-.356 22.341-1.109 33.507l-.237 3.603c-.368 4.749-.737 8.283-2.888 12.585a160 160 0 0 0-1.625 6.25L686 529c-1.287-5.147-.254-8.549.813-13.75 3.863-20.21 4.42-40.148 4.114-60.668l-.052-4.55-.07-4.108z"/><path fill="#d4957e" d="M591 634c3.688.5 3.688.5 7 2l-2 5h-2v2h-2v2a297 297 0 0 1-5.43 4.71c-4.237 3.774-8.106 7.915-12.03 12.009L572 664l-2-1 1-4h4v-4l4-4h4l1-4h3l-1-3 4-1-1-4h5l-1-2h-3z"/><path fill="#c67f66" d="m555 712 1 2h-2l-2 4 1 2-4 1-2 5-1-4c-3.062.125-3.062.125-6 1v2l-6 1v2c-4.72 3.067-8.455 3.287-14 3 3.556-2.667 6.869-4.617 10.813-6.625l3.582-1.852C538 721 538 721 541.68 720.508c5.089-.779 7.676-4.049 11.32-7.508z"/><path fill="#ebcaba" d="M152 389h1c.432 6.801-.855 11.607-3 18-4.83 21.177-5.96 42.648-6.754 64.285L143 475h-1c-1.089-28.787 1.695-58.331 10-86"/><path fill="#d38e76" d="M517 696h6c-4.577 3.433-9.427 5.795-14.562 8.25l-2.905 1.43c-7.175 3.44-7.175 3.44-10.533 2.32h2l-.5-2.75C496 702 496 702 498 698h2v2c2.333.046 4.667.038 7 0l5 1v-2h4z"/><path fill="#d2937c" d="M185 316c1.297 5.188-.047 7.066-2.25 11.875l-1.89 4.18L179 336l-1.61 3.508L176 342h-2v4h-2v4h-3l1-5h2v-6c1.828-4.094 1.828-4.094 4.25-8.5l2.39-4.406c2-3.47 4.087-6.799 6.36-10.094"/><path fill="#d28e74" d="M311 219c-5 3-5 3-7 3l1 5c-2.672-.286-5.338-.63-8-1a221 221 0 0 0-7 3c-3.324.42-6.658.771-10 1 7.637-5.728 15.573-9.328 25-11 2-1 2-1 6 0"/><path fill="#c5795c" d="M445 723c-13.977 2.579-28.468 2.158-42.625 2.125l-5.082.012-4.895-.004-4.385-.004c-3.756-.12-7.32-.44-11.013-1.129v-1c2.028-.066 4.058-.058 6.086-.027l3.975.04 4.314.05a391 391 0 0 0 38.379-1.625c11.468-.957 11.468-.957 15.246 1.562"/><path fill="#d59881" d="M621 604c0 4.743-2.894 7.397-5.625 11.188l-3.164 4.417c-1.06 1.45-2.12 2.9-3.211 4.395l-3.336 4.676L603 632c-1.721-3.443-.808-6.365 0-10l5-1v-2h2v-4h2v-2h2l1-5c2-3 2-3 6-4"/><path fill="#d5977e" d="M622 321c3.475 3.475 5.266 6.906 7.563 11.25l2.378 4.453c1.818 3.794 3.258 7.171 4.059 11.297l-2 2c-4-4-4-4-5-7h-2v-6l-2-2a126 126 0 0 1-1.625-7.125c-.26-1.281-.52-2.563-.79-3.883z"/><path fill="#d49a85" d="m289 729 4 1c-2.771 2.771-5.692 3.483-9.375 4.813-5.22 1.904-10.349 3.895-15.437 6.125C263 743 263 743 260 742h2v-2h4v-2h5v-3l4-2-2-2 5-1 1 1c5.063.188 5.063.188 10 0z"/><path fill="#deb8a6" d="M635 286c10.663-.955 21.522 1.122 32 3v1a488 488 0 0 1-8.266-.676c-6.569-.57-13.152-.931-19.734-1.324l2 3v5h4c.727 2.65 1.39 5.32 2 8l3 2-1 4c-14-19.714-14-19.714-14-24"/><path fill="#deb19e" d="M445 203c7.338.575 14.316 1.817 21.438 3.625l3.13.786c9.745 2.526 19.079 5.86 28.432 9.589l-4 2v-2h-5v-2l-3 1v-2l-3 1v-2l-2.875.063c-5.13-.078-9.31-1.348-14.125-3.063v-2c-3.089-.293-6.18-.576-9.277-.754C454 207 454 207 453 206l-3.5-.437L446 205z"/><path fill="#ca8168" d="m847 656 3 1c-1.052 5.43-4.185 9.777-7.125 14.375l-2.758 4.336L838 679l-1-4h2c.16-2.773.16-2.773.063-6.375-.162-6.428-.162-6.428.937-8.625h2v-2h2v2h3z"/><path fill="#d09882" d="M765 329c8.968 3.711 15.816 10.643 23 17l4.18 3.254L795 352l-4 2v-3l-2.937-.937L785 349l-1-4h-2v-2l-2.812-.812C776 341 776 341 773 336h-6v-2l-2-1z"/><path fill="#cc9079" d="M476 752h5l1 3c5 2 5 2 8.188 2.375L493 758l2 4 2 1v2l3-1c3 4 3 4 3 6-4.696-1.146-8.439-3.312-12.5-5.875l-3.281-2.055L484 760l-3.281-2.008C478 756 478 756 476 752"/><path fill="#e0b5a2" d="m201 630 2 1c.79 7.42-1.79 14.113-4.625 20.875-1.244 3.73-1.672 6.56-1.937 10.438C196 668 196 668 194 671h-2a783 783 0 0 0-2 9l-2 2c2.018-9.85 4.928-19.447 7.723-29.098 1.753-6.138 3.409-12.166 4.433-18.472z"/><path fill="#c6765a" d="M761 808h3v2l3 1c1 3 1 3 1 6-6.302 1.26-9.294-.261-15-3v-3h-3v-2c2.688.313 2.688.313 6 1l5 1z"/><path fill="#c87f65" d="M837 403c3.166 3.166 5.023 6.189 7.25 10.063l2.203 3.785L848 420l-1 2-4-1v-3l-5-2v-5l-1-1-3 3-1-5 4-1z"/><path fill="#dbae9a" d="M875 570h1c-.437 9.573-1.929 18.644-3.937 28l-.803 3.887c-1.117 5.302-2.24 10.06-4.26 15.113-2.9-8.699 2.051-23.346 5.027-31.98 1.01-3.136 1.557-6.138 2.035-9.395z"/><path fill="#c7765a" d="M200 644h1v6h-2c-1.397 5.868-.963 11.812-.742 17.793C198 671 198 671 195 675l-2.562 5.313L190 685l-2-1c3.316-12.316 3.316-12.316 7-16 .231-2.877.456-5.755.621-8.637.617-5.472 2.423-10.227 4.379-15.363"/><path fill="#d4a38d" d="M795 353c8.106 4.863 13.882 11.88 20 19l4 4.375 3 3.625-1 2-4-3-4-1-1-4-3-3v-2h-2l-1.187-2.562c-2.455-4.655-6.023-9.043-10.813-11.438z"/><path fill="#c37c60" d="M382 201c6.076-.23 12.157-.186 18.237-.185 3.062-.002 6.123-.02 9.185-.04 12.003-.011 23.686.576 35.578 2.225-4.242 2.12-6.362 2.258-11 2l-2-1c-12.161-1.48-24.44-1.37-36.674-1.605-.855-.02-.855-.02-5.181-.114l-4.74-.092L382 202z"/><path fill="#d6977f" d="m630 578 2 1-1 4 3-1c-1.506 5.246-3.914 9.651-6.625 14.375l-2.477 4.336L623 604c-1.559-3.118-.677-5.678 0-9h2v-2h2c.598-3.027.598-3.027 1.063-6.937.844-6.97.844-6.97 1.937-8.063"/><path fill="#d7a08a" d="m278 230 2 1c-1.062 2.938-1.062 2.938-3 6-5 2-5 2-9 2v2c-7.2 4.2-7.2 4.2-12 3q4.092-2.657 8.188-5.312l4.605-2.989A361 361 0 0 1 278 230"/><path fill="#dfb29d" d="m254 245 2 1a141 141 0 0 1-5 5l-1 2-2.937.875C244 255 244 255 242 259c-3.864 2.989-7.806 5.484-12 8l-2-1c7.232-8.155 16.833-15.194 26-21"/><path fill="#cd8f79" d="m640 629 1 4c-1.701 2.257-3.413 4.509-5.219 6.684-2.221 2.889-3.433 5.947-4.781 9.316l-3 3-2-1 1-2-2 1c1.98-3.961 4.217-7.017 6.938-10.5l2.652-3.406L637 633z"/><path fill="#d9a48e" d="M645 554c1.154 4.615.671 5.476-1.273 9.64l-1.5 3.243-1.602 3.367-1.578 3.414A386 386 0 0 1 635 582h-1c-.472-5.659.652-9.854 3-15h2l1-3h2v-6l2-1z"/><path fill="#d48d72" d="M567 661h2l1 5c-2.457 2.492-2.457 2.492-5.812 4.875l-3.333 2.43L558 675l-2-1c-.25-4.062-.25-4.062 0-8h2v-2h2v3c3.5 0 3.5 0 7-1z"/><path fill="#d19c88" d="M624 650c0 3 0 3-1 8-6.83 6.61-6.83 6.61-11 8l-1 4-5 1 3-5h2l2-4a211 211 0 0 1 5.625-6.25l3.04-3.266c.77-.82 1.54-1.64 2.335-2.484"/><path fill="#d8aa98" d="m569 701 2 1c-2.742 4.455-5.17 5.459-10 7l-3 4-5 1a283 283 0 0 0-5 5c-3.187 1.938-3.187 1.938-6 3l-2-2c2.417-1.647 4.855-3.267 7.355-4.785 4.31-2.619 8.538-5.348 12.77-8.09l4.445-2.867C568 702 568 702 569 701"/><path fill="#d1866c" d="m252 744 3 1c-4.071 4.071-9.417 4.568-14.875 5.375l-4.117.648L233 751c1-4 1-4 4-6 2.813-.23 2.813-.23 6-.187l3.188.019C249 745 249 745 252 746z"/><path fill="#c87f64" d="m656 310 2 4h3l1 2h-3l1 4-3 4c-1.824-2.164-1.824-2.164-3.687-5.625l-1.887-3.414C650 312 650 312 650 310c4-1 4-1 6 0"/><path fill="#c98c75" d="M667 588c-.187 3-.187 3-1 6h-3v5c-2 4-2 4-7 6v3h-2c1.681-4.203 3.498-8.196 5.5-12.25l1.844-3.766C663.555 588 663.555 588 667 588"/><path fill="#daa993" d="M636 348c6.505 6.505 9.228 17.14 11 26l-4-1c.375-3.062.375-3.062 1-6h-2v-5h-2l-1-5h-2c-.56-3.019-1-5.925-1-9"/><path fill="#bd6649" d="M639 288c7.29-1.346 14.157-.737 21 2v1c-3.396-.229-6.771-.59-10.156-.941L647 290v2l2 1c-4 0-4 0-6-1l-1 4h-1c-2.062-4-2.062-4-2-8"/></svg>